<svg width="357" height="167" viewBox="0 0 357 167" fill="none" xmlns="http://www.w3.org/2000/svg">
<path d="M24.5941 79.458L59.3327 30.3076L72.6921 39.7498C76.0097 42.0945 78.5485 44.5395 80.3085 47.0845C82.1121 49.6221 82.9252 52.3971 82.7477 55.4096C82.5702 58.4221 81.1467 61.8167 78.4773 65.5936C75.6996 69.5236 72.7855 71.9412 69.7348 72.8465C66.7022 73.7262 63.5681 73.5584 60.3325 72.343C57.0969 71.1276 53.782 69.3205 50.3879 66.9216L43.9953 62.4034L29.4939 82.9211L24.5941 79.458ZM45.5104 60.2598L45.1406 57.1284L52.7581 62.5123C55.4632 64.4242 57.9718 65.9102 60.2839 66.9704C62.6396 68.023 64.8876 68.2534 67.028 67.6615C69.2119 67.0621 71.3771 65.2439 73.5234 62.2071C75.5435 59.349 76.6774 56.8785 76.9249 54.7956C77.216 52.7053 76.7561 50.8113 75.5452 49.1136C74.3342 47.4158 72.5294 45.7192 70.1305 44.0238L59.642 36.6107L62.7174 35.9143L45.5104 60.2598Z" fill="#D9D9D9"/>
<path d="M100.498 121.937C100.134 119.19 99.7604 115.932 99.3755 112.163C99.0195 108.405 98.699 104.561 98.4139 100.631C98.1288 96.6998 97.905 93.1148 97.7426 89.8755L99.7207 93.2149C98.5622 92.9106 97.3433 92.5479 96.0638 92.1266C94.7844 91.7054 93.5805 91.2644 92.4522 90.8037L85.2051 87.8442L86.5519 84.5461L75.7063 111.104L70.1516 108.836L92.9061 53.1156L108.051 59.3004C111.812 60.8363 114.837 62.6454 117.126 64.7278C119.456 66.793 120.874 69.3131 121.381 72.2879C121.887 75.2628 121.266 78.8911 119.518 83.1728C117.627 87.8017 115.107 90.8738 111.957 92.3889C108.806 93.9041 105.388 94.2973 101.703 93.5687L103.088 91.0456C103.336 93.5775 103.584 96.1936 103.832 98.8938C104.091 101.565 104.347 104.286 104.6 107.056C104.894 109.808 105.193 112.547 105.499 115.271C105.845 117.977 106.2 120.62 106.565 123.2L100.498 121.937ZM86.8354 83.8517L85.1307 82.4467L93.7665 85.9733C96.8332 87.2256 99.6123 88.1074 102.104 88.6186C104.636 89.1126 106.878 88.8299 108.83 87.7704C110.823 86.6937 112.522 84.434 113.928 80.9913C115.251 77.751 115.798 75.0884 115.569 73.0035C115.381 70.9014 114.506 69.1599 112.943 67.7792C111.381 66.3984 109.239 65.1527 106.52 64.0422L94.6295 59.1865L97.3798 58.0311L86.8354 83.8517Z" fill="#D9D9D9"/>
<path d="M141.919 131.457C136.355 130.631 132.258 128.758 129.627 125.84C126.996 122.922 125.451 119.075 124.991 114.299C124.537 109.492 124.787 103.874 125.742 97.445C126.702 90.9847 128.118 85.603 129.989 81.3001C131.891 77.0017 134.516 73.9007 137.864 71.9969C141.242 70.0978 145.62 69.5478 150.999 70.3469C156.408 71.1505 160.437 72.9497 163.087 75.7444C165.736 78.5391 167.33 82.267 167.87 86.9282C168.441 91.5939 168.246 97.157 167.286 103.617C166.331 110.047 164.937 115.495 163.104 119.961C161.276 124.397 158.68 127.629 155.314 129.656C151.979 131.688 147.514 132.289 141.919 131.457ZM142.649 126.543C146.513 127.117 149.649 126.635 152.058 125.097C154.497 123.564 156.434 120.945 157.869 117.241C159.304 113.536 160.458 108.748 161.331 102.875C162.217 96.9089 162.487 92.0048 162.142 88.1623C161.832 84.2935 160.726 81.3174 158.824 79.234C156.953 77.1553 154.101 75.8311 150.268 75.2617C146.466 74.6968 143.353 75.1346 140.927 76.575C138.502 78.0154 136.563 80.5391 135.111 84.1462C133.694 87.7269 132.543 92.5001 131.656 98.4658C130.784 104.339 130.495 109.256 130.791 113.218C131.087 117.179 132.164 120.246 134.021 122.417C135.91 124.593 138.786 125.968 142.649 126.543Z" fill="#D9D9D9"/>
<path d="M182.934 133.749L178.499 73.7247L209.82 71.4107L209.158 76.4419L182.745 78.3933L184.676 75.9005L186.725 103.622L184.448 101.44L207.869 99.7095L208.235 104.665L184.814 106.395L186.745 103.902L188.918 133.307L182.934 133.749Z" fill="#D9D9D9"/>
<path d="M227.109 128.76L225.856 123.952L236.697 121.126L235.187 123.699L221.45 70.9912L224.023 72.5004L213.183 75.3259L211.929 70.5177L235.335 64.4176L236.588 69.2258L225.747 72.0512L227.256 69.478L240.993 122.186L238.42 120.677L249.261 117.851L250.514 122.66L227.109 128.76Z" fill="#D9D9D9"/>
<path d="M268.653 116.201L243.456 61.5413L248.905 59.0295L273.003 111.305L270.106 110.06L292.966 99.5216L295.77 103.7L268.653 116.201Z" fill="#D9D9D9"/>
<path d="M308.725 95.6963L273.471 46.9145L299.496 28.1067L301.57 32.7379L279.535 48.6628L279.872 45.5276L295 66.4612L291.945 65.8352L312.689 50.8438L315.599 54.8709L294.856 69.8623L295.165 66.6892L312.051 90.0543L308.968 89.3902L331.384 73.1907L334.902 76.7786L308.725 95.6963Z" fill="#D9D9D9"/>
</svg>
